<svg width="17" height="20" viewBox="0 0 17 20" fill="none" xmlns="http://www.w3.org/2000/svg">
<path fill-rule="evenodd" clip-rule="evenodd" d="M0.125796 15.7213C-0.0737069 15.4781 -0.0300646 15.12 0.215249 14.9231L2.53909 13.0572C2.7418 12.8945 3.03816 12.9312 3.20343 13.1319C4.78188 15.0482 6.45681 15.9353 8.31077 15.9353C10.1519 15.9353 11.7811 15.0607 13.2905 13.1657C13.4525 12.9623 13.7481 12.9202 13.9537 13.0794L16.3093 14.9024C16.5581 15.0949 16.6082 15.452 16.4128 15.6985C14.1812 18.5154 11.449 19.9996 8.31077 19.9996C5.1817 19.9996 2.42501 18.5247 0.125796 15.7213Z" fill="url(#paint0_linear_47_403)"/>
<path fill-rule="evenodd" clip-rule="evenodd" d="M8.42503 5.20391C8.33744 5.12634 8.20577 5.1263 8.1181 5.2038L3.06506 9.67194C2.87189 9.84278 2.57643 9.82294 2.40782 9.62785L0.436978 7.34758C0.270712 7.15523 0.290603 6.8648 0.481536 6.69689L7.96566 0.115358C8.14061 -0.0384834 8.4026 -0.0384493 8.57752 0.11544L16.0633 6.70193C16.2544 6.87003 16.274 7.16075 16.1073 7.35306L14.1318 9.63219C13.9629 9.82691 13.6676 9.84641 13.4747 9.67554L8.42503 5.20391Z" fill="url(#paint1_linear_47_403)"/>
<defs>
<linearGradient id="paint0_linear_47_403" x1="0.766601" y1="12.6029" x2="3.78621" y2="23.6496" gradientUnits="userSpaceOnUse">
<stop stop-color="#1C87FF"/>
<stop offset="0.461538" stop-color="#3C9BFA"/>
<stop offset="1" stop-color="#61B2F5"/>
</linearGradient>
<linearGradient id="paint1_linear_47_403" x1="1.06132" y1="-0.489603" x2="6.70177" y2="13.784" gradientUnits="userSpaceOnUse">
<stop stop-color="#1C87FF"/>
<stop offset="0.461538" stop-color="#3C9BFA"/>
<stop offset="1" stop-color="#61B2F5"/>
</linearGradient>
</defs>
</svg>
